<svg xmlns="http://www.w3.org/2000/svg" width="220" height="300" viewBox="0 0 220 300"><defs><linearGradient id="a" x1="0" y1="0" x2="1" y2="1"><stop stop-color="#ffb1c5"/><stop offset="1" stop-color="#d41f57"/></linearGradient></defs><g stroke="#210712" stroke-width="10" stroke-linecap="round" stroke-linejoin="round"><circle cx="110" cy="55" r="35" fill="url(#a)"/><path d="M75 42 L92 8 M145 42 L128 8" fill="none"/><path d="M110 90 L110 185"/><path d="M110 115 L48 145"/><path d="M110 115 L172 155"/><path d="M110 185 L58 270"/><path d="M110 185 L170 270"/><path d="M78 68 Q110 86 142 68" fill="none" stroke="#ffd8e2"/><path d="M80 55 L100 55 M120 55 L140 55"/></g><circle cx="110" cy="130" r="16" fill="#fff" opacity=".9"/><path d="M35 150 Q110 95 185 150" fill="none" stroke="#ff3d72" stroke-width="7" opacity=".45"/></svg>